<mxfile host="app.diagrams.net" modified="2024-02-11T08:49:07.060Z" agent="Mozilla/5.0 (Windows NT 10.0; Win64; x64) AppleWebKit/537.36 (KHTML, like Gecko) Chrome/121.0.0.0 Safari/537.36" version="23.1.2" etag="gL_8g_8YUsMas0n2L-1r" type="github">
  <diagram name="Page-1" id="kPzRreIq1R7cyx9-enAF">
    <mxGraphModel>
      <root>
        <mxCell id="0" />
        <mxCell id="1" parent="0" />
      </root>
    </mxGraphModel>
  </diagram>
</mxfile>
